<?xml version="1.0" encoding="utf-8"?>
<!-- Generator: Adobe Illustrator 23.0.3, SVG Export Plug-In . SVG Version: 6.00 Build 0)  -->
<svg version="1.1" id="Layer_1" xmlns="http://www.w3.org/2000/svg" xmlns:xlink="http://www.w3.org/1999/xlink" x="0px" y="0px"
	 viewBox="0 0 1728 1296" style="enable-background:new 0 0 1728 1296;" xml:space="preserve">
<path d="M249.6,647.9c0-341,275.9-616.9,616.9-616.8c340.9,0.1,616.6,276.1,616.5,617.2c-0.1,341-276.5,616.5-618.2,616.2
	C525.2,1264.2,249.6,988,249.6,647.9z M866.6,53.2c-327.8-0.1-594.5,265.8-594.9,593c-0.4,329,265.3,595.8,593.7,596.2
	c328.7,0.3,595.4-265.9,595.6-594.3C1461,319.8,1194.8,53.3,866.6,53.2z M1265.7,1094.8c-15.4,12.5-30.2,24.6-45.2,36.7
	c2.6,3.5,4.9,6.8,7.9,10.7c16.9-12.5,31.5-24,46.3-37.6C1271.3,1101,1268.6,1098,1265.7,1094.8z M457.9,190.9c3.5,3.9,6.3,6.9,9,9.9
	c14.3-12.9,28.3-24.4,45.2-36.7c-2.6-3.5-4.9-6.8-7.8-10.7C487.5,166.2,472.9,177.7,457.9,190.9z M996.1,1247
	c20.3-4.5,38.2-9.6,57.6-15.6c-1.8-5.1-3.1-8.9-4.4-12.5c-18.1,5.8-37.3,10.9-56.1,15.1C994.1,1238.2,995,1242,996.1,1247z
	 M421.5,244.3c13.2-14.3,26.6-27.7,41.4-41.2c-2.4-2.5-5.2-5.5-8.4-8.9c-15.4,14.1-28.8,27.5-42.1,41.9
	C416.1,239.4,419.1,242.1,421.5,244.3z M1311.1,244.3c2.5-2.3,5.4-4.9,8.7-7.9c-13.6-15.1-27.3-28.9-41.8-42.5
	c-3.5,3.9-6.2,7-8.1,9.2C1284.6,216.3,1297.9,229.8,1311.1,244.3z M683.1,76.8c18.3-5.3,35.9-10.5,56.3-15.1c-1-4.3-1.9-8.3-3-13
	c-20,4.3-38.7,9.6-57.4,15.5C680.6,69,681.8,72.7,683.1,76.8z M993.1,61.7c19.2,4.1,37.7,9.1,56.4,15.1c1.4-4.3,2.6-8.1,4.1-12.7
	c-19.3-6.2-38.1-11.2-57.5-15.3C994.9,53.6,994.1,57.3,993.1,61.7z M1311.1,1051.3c-13.9,13.9-27.5,27.4-41.4,41.2
	c2.2,2.4,5,5.4,7.8,8.5c14.8-14,28.8-27.4,42.3-41.8C1316.2,1056,1313.3,1053.3,1311.1,1051.3z M412.5,1059.4
	c13.8,14.9,27.2,28.9,41.9,42.4c3.5-4,6.3-7,8.3-9.2c-14.7-13.2-28-27.2-41.1-41.3C419.2,1053.4,416.2,1056.1,412.5,1059.4z
	 M457.9,1104.8c15.6,13.5,30.2,25.6,46.3,37.5c3.1-4.3,5.5-7.6,7.7-10.8c-16.2-11.9-30.2-23.4-45.1-36.6
	C464.1,1097.9,461.3,1101,457.9,1104.8z M741.1,1247.9c19.8,4.2,38.3,7.4,59,9.2c0.4-5.3,0.7-9.2,1.1-13.3
	c-19.8-1.9-38.3-4.5-57.3-9C742.9,1239.1,742.2,1242.8,741.1,1247.9z M1108.1,99.1c1.7-3.7,3.4-7.5,5.5-12.2
	c-18.5-8.1-36.8-15-55.7-21.3c-1.6,5-2.8,8.8-4,12.6C1072,84.3,1089.8,91.1,1108.1,99.1z M1360.8,285.7
	c-12.3-16.3-24.6-31.4-37.7-46.3c-3.9,3.5-6.8,6.2-9.8,8.9c12.7,14.8,24.7,29.6,36.7,45.2C1353.3,291.2,1356.5,288.8,1360.8,285.7z
	 M801.3,51.8c-0.4-4.3-0.9-8.4-1.4-13.3c-20.6,2.1-39.6,5.2-58.7,9.3c1,5.1,1.8,9.1,2.6,13.1C763.2,56.7,781.8,53.7,801.3,51.8z
	 M931.3,51.8c19.4,2.3,38.2,5.1,57.4,9c0.8-4.2,1.6-8.1,2.6-13.1c-19.8-4.2-39-6.9-58.8-9.2C932.1,43.6,931.7,47.6,931.3,51.8z
	 M624.5,99.1c18.5-8.1,35.1-14.4,54.4-21c-1.4-4.1-2.7-8-4.3-12.7c-20.1,7.1-38,12.8-55.5,21.5C621.2,91.7,622.8,95.3,624.5,99.1z
	 M1452.4,521c4.5-1.1,8.4-2,13-3.1c-3.6-20.8-8.8-38.5-15.5-57.4c-5,1.7-8.7,3-12.6,4.3C1443.3,483.5,1448.3,501.9,1452.4,521z
	 M679,1231.5c19.4,6.5,37.3,11.6,57.5,15.4c1.1-5,2-9,2.9-13c-19.9-4.1-37.8-8.6-56.2-15C681.8,1222.9,680.6,1226.6,679,1231.5z
	 M1113.7,1208.6c-2.4-4.9-4.3-8.7-5.9-12c-18.1,7.7-35.3,14.7-54.1,20.8c1.4,4.1,2.7,8,4.3,12.6
	C1077.6,1223.4,1095.5,1217,1113.7,1208.6z M932.6,1257.2c20.8-2.5,39.3-5.7,58.8-9.3c-1-5-1.8-8.8-2.6-13c-19.5,3.9-38,6.4-57.4,9
	C931.7,1248.1,932.1,1252,932.6,1257.2z M282.5,460.5c-5.9,20.5-11,37.7-15.3,57.6c5,1.1,8.9,2,13,2.9c4.7-19.5,9.2-37.4,15.1-56.3
	C291.1,463.3,287.5,462.1,282.5,460.5z M1228.4,153.4c-3,4.2-5.4,7.5-7.8,10.8c15.9,11.7,30.8,23.6,45.2,36.6
	c2.9-3.2,5.6-6.2,8.9-9.9C1259.5,177.4,1244.3,165.2,1228.4,153.4z M1427.2,895.1c8.6-19,15-36.2,21.4-55.7
	c-4.7-1.5-8.7-2.8-12.7-4.1c-5.9,19.1-12.9,37-20.9,54.3C1418.6,891.2,1422.2,892.8,1427.2,895.1z M371.8,1010
	c11.8,16.5,23.9,31.2,37.6,46.2c4.1-3.7,7-6.4,9.8-9c-13.9-15-25.4-29.6-36.7-45.2C379,1004.6,375.8,1007,371.8,1010z M1350,1002
	c-12.5,15.4-24.4,30.1-36.6,45.2c3.1,2.8,6.2,5.6,9.9,9c13.1-15,25.8-30.3,37.5-46.3C1356.6,1006.8,1353.4,1004.5,1350,1002z
	 M282.6,835.2c5.2-1.8,8.9-3.1,12.6-4.4c-5.9-19-11-36.9-15-56.2c-4.3,1-8.3,2-13,3.1C271.5,797.7,276.6,815.6,282.6,835.2z
	 M371.8,285.7c4.2,3,7.5,5.4,10.8,7.8c11.9-15.8,24-30.4,36.6-45.2c-3.2-2.9-6.2-5.6-9.9-8.9C395.8,254.8,383.7,269.4,371.8,285.7z
	 M1448.6,456.2c-6.3-19.3-13.5-37.5-21.4-55.6c-4.8,2.2-8.5,3.8-12.1,5.5c7.8,17.9,14.9,35.7,20.9,54.3
	C1440.1,459,1443.9,457.7,1448.6,456.2z M678.8,1217.4c-19.2-6.1-36.4-12.5-54.3-20.9c-1.6,3.7-3.3,7.5-5.4,12.2
	c18.8,8.3,36.7,14.6,55.6,21.3C676.3,1225.2,677.5,1221.4,678.8,1217.4z M305.4,400.6c-7.9,17.9-14.5,35.5-21.4,55.7
	c5,1.6,8.9,2.8,12.7,4c6.7-19.4,12.4-36,20.9-54.3C313.7,404.2,310.1,402.6,305.4,400.6z M1466.4,772.9c4.5-19.8,7-38.3,9.3-58.8
	c-5.1-0.5-9.2-0.9-13.3-1.2c-2.3,19.8-4.9,38.3-9,57.4C1457.6,771.2,1461.3,771.9,1466.4,772.9z M256.9,714.1
	c1.8,19.9,5,39,9.3,58.8c5-1,8.9-1.8,13-2.6c-4.6-19.1-7.1-38.2-9-57.5C266,713.2,262.1,713.6,256.9,714.1z M1453.3,525.3
	c4.2,19.3,7.2,38.1,9,57.5c4.4-0.5,8.5-0.9,13.3-1.4c-1.7-20.1-4.8-39.2-9.3-58.7C1461.3,523.7,1457.4,524.5,1453.3,525.3z
	 M1450,835.2c6.8-19.6,11.2-38.1,15.3-57.6c-5-1.1-8.9-1.9-13-2.8c-3.9,19.2-9,37.7-15.1,56.2C1441.2,832.2,1444.9,833.4,1450,835.2
	z M266.2,522.7c-4.3,19.5-7.5,38.6-9.2,58.8c5,0.5,9,0.9,13.3,1.3c2.5-20.2,5.1-38.1,9-57.5C275.2,524.5,271.3,523.7,266.2,522.7z
	 M317.6,889.6c-8.5-18-14.8-35.8-20.9-54.4c-4.1,1.4-8,2.7-12.7,4.2c6.7,19.5,13.7,37.3,21.5,55.6
	C310.1,892.9,313.8,891.3,317.6,889.6z M574.2,124.2c14.6-8.4,29.3-16,46.2-23.3c-1.8-3.9-3.6-7.7-5.6-12.1
	c-17,7.9-32.3,15.5-47.2,23.9C570.2,117.2,572.1,120.6,574.2,124.2z M1165.1,112.7c-15.4-9.2-31-16.8-47.5-23.9
	c-2.1,4.7-3.8,8.5-5.4,12.2c15.9,7.1,30.9,14.5,46.1,23.2C1160.3,120.7,1162.4,117.3,1165.1,112.7z M331.2,946.6
	c4.6-2.7,8-4.7,11.5-6.8c-8.7-15.3-16.4-29.9-23.3-46.2c-4,1.9-7.8,3.7-12,5.7C314.8,916.3,322.5,930.9,331.2,946.6z M1117.6,1206.8
	c16.7-7.6,32-15.3,47.4-24c-2.6-4.5-4.6-7.9-6.7-11.5c-15.6,7.9-30.7,15.5-46.1,23.2C1113.9,1198.5,1115.5,1202.1,1117.6,1206.8z
	 M875.6,48.5c17.3,0.5,34,1.4,51.1,2.8c0.4-4.4,0.8-8.3,1.3-13.2c-17.9-1.7-35-2.5-52.4-3C875.6,40.1,875.6,44.1,875.6,48.5z
	 M319.5,401.9c7.5-16.5,14.5-30.5,23.2-46.1c-3.7-2.2-7.3-4.2-11.6-6.7c-8.6,15.9-16.3,30.6-23.8,47.4
	C312,398.6,315.6,400.2,319.5,401.9z M620.4,1194.6c-16.2-7.5-30.9-14.5-46.2-23.2c-2.2,3.8-4.2,7.3-6.6,11.5
	c16.2,8.6,30.8,16.3,47.3,23.9C616.9,1202.4,618.5,1198.7,620.4,1194.6z M1425.3,396.4c-7.5-16.6-15.4-31.9-24-47.4
	c-4.5,2.7-7.9,4.7-11.4,6.8c8.5,15.3,16.2,30.4,23.2,46C1417,400.1,1420.6,398.5,1425.3,396.4z M1413.1,893.7
	c-7.3,16.2-14.9,31.5-23.2,46.2c3.8,2.2,7.3,4.1,11.5,6.5c9.5-15.6,16.5-30.9,23.8-47.3C1420.8,897.2,1417.2,895.5,1413.1,893.7z
	 M806,51.4c17.5-1.7,34.2-2.7,50.9-2.9c0-4.6,0-8.5,0-13.4c-17.9,0.1-34.9,1.3-52.4,3.1C805,43.2,805.5,47.1,806,51.4z M857,1247.1
	c-17.7-0.1-33.6-0.7-51-2.8c-0.4,4.2-0.9,8.3-1.4,13.2c18.2,2.2,35.4,2.9,52.4,3C857,1255.3,857,1251.3,857,1247.1z M875.7,1247.1
	c0,4.4,0,8.5,0,13.4c17.7-0.2,34.9-0.8,52.5-3.1c-0.7-5.3-1.3-9.3-1.8-13.1C908.8,1246.3,892.2,1247,875.7,1247.1z M269.9,708.1
	c-2.2-17.5-2.8-34.7-2.9-51c-4.6,0-8.5,0-13.4,0c-0.5,18.2,0.7,34.1,3.1,52.5C261.7,709.1,265.6,708.6,269.9,708.1z M380,998.3
	c-10.4-13.9-19.9-28.5-28.5-43.2c-3.9,2.3-7.4,4.5-11.4,6.9c9.2,15.4,18.7,30.1,29.1,44.1C373.1,1003.3,376.4,1000.9,380,998.3z
	 M1465.6,657.1c0.1,17-0.5,34.2-2.8,51.1c4.3,0.5,8.3,0.9,13.2,1.4c2.5-17.6,3.8-34.2,3.1-52.4
	C1474,657.1,1470.1,657.1,1465.6,657.1z M256.6,586.1c-1.7,17.9-3.6,35.1-3,52.3c5.1,0,9.2,0,13.4,0c0-17.2,1.3-33.7,2.8-51
	C265.5,587,261.5,586.6,256.6,586.1z M1475.9,585.9c-5.2,0.7-9.3,1.2-13.2,1.7c2.1,17.4,3.1,34,2.8,50.8c4.3,0,8.4,0,13.4,0
	C1479.1,620.6,1478.5,604,1475.9,585.9z M1173.7,133.1c15,9.1,29.2,18.3,43.1,28.4c2.6-3.5,4.9-6.8,7.9-10.7
	c-14.7-10.6-29.2-20-44.3-29.2C1177.8,125.9,1175.8,129.5,1173.7,133.1z M1363.4,1006.2c11.2-15.4,20.1-29.4,29.1-44.4
	c-4.5-2.6-7.9-4.6-11.5-6.6c-9,15.2-17.9,28.6-28.4,43.1C1356,1000.8,1359.2,1003.1,1363.4,1006.2z M1392.6,333.8
	c-9.4-15.8-19-30-29.2-44.3c-4,3-7.3,5.4-10.7,7.9c10.1,14,19.4,28.1,28.4,43C1384.8,338.2,1388.2,336.3,1392.6,333.8z
	 M1180.3,1174.1c15.9-9.4,29.9-18.9,44.3-29.3c-3-4-5.4-7.3-7.9-10.7c-14.7,9.7-28.8,19-43,28.4
	C1175.8,1166.3,1177.8,1169.8,1180.3,1174.1z M369.2,289.4c-10.4,15.1-20,29.7-29.1,44.4c4.5,2.6,8.1,4.6,11.5,6.6
	c9.8-15.5,18.1-28.9,28.4-43.1C376.7,294.9,373.5,292.5,369.2,289.4z M515.8,161.5c15.1-11.2,27.2-18.9,43.1-28.4
	c-2.2-3.9-4.2-7.3-6.6-11.5c-15.7,9.6-29.7,18.6-44.4,29.2C510.8,154.7,513.2,157.9,515.8,161.5z M558.9,1162.5
	c-15.3-9.2-29.3-18.1-43.1-28.3c-2.5,3.4-5,6.7-7.9,10.7c14.7,11,28.7,19.9,44.4,29.2C554.8,1169.7,556.8,1166.2,558.9,1162.5z
	 M445.8,405.7c0-14.1,2-27.8,9.2-40.1c2.8-4.7,6.2-9.3,10.3-12.9c12.1-10.9,26.8-10.2,38.4,1.2c1.4,1.3,2.6,2.8,3.8,4.3
	c18.5,23,18.5,71.7,0.1,94.7c-14.5,18.2-36.1,17.5-49.4-1.6C448.7,437.5,445.7,422,445.8,405.7z M503.5,404.5c0.5-8.6,0-15.8-0.6-21
	c-2-16-5.1-21.2-7.1-25.3c-5-10.2-16.8-10.4-23.3-0.9c-2.8,4.1-4.9,9.1-6,13.9c-3.9,17.4-5.2,35.1-2.8,52.8
	c1.3,9.6,3.5,19.4,7.4,28.2c2,4.6,5.4,7.4,9,8.3c7,1.7,13.4-4.9,14.7-6.3c4.2-4.6,5.2-9.8,5.5-12
	C501.7,429.7,502.8,417.1,503.5,404.5z M441.6,891.7c5.4,4.9,10.9,9.4,15.8,14.4c9,9.3,12.9,20.3,7.9,32.8
	c-5.2,12.8-15.8,18.9-29.2,19c-6.6,0.1-13.9-0.9-19.8-3.7c-17.2-7.9-21.2-27.6-9.3-42.3c4.4-5.5,8.7-11.1,12.5-15.8
	c-2-2.2-5.8-6.7-9.8-11.1c-7.7-8.6-11-18.5-6.5-29.5c4.6-11.4,13.8-17,25.8-18.1c8.4-0.7,16.6,0.1,24,4.9
	c13.8,9.1,15.8,24.8,4.3,36.6C452.6,883.5,447,887.2,441.6,891.7z M428.1,900.7c-13.2,9.7-18.5,26.7-12.8,39.9
	c3.5,8.2,9.9,12.7,18.9,12.9c8.2,0.2,15.3-2.5,19.1-10.3c3.9-8,2-15.6-3.9-21.8C442.5,914.1,435.1,907.4,428.1,900.7z M436.9,888.5
	c4.2-4.8,8.5-8.7,11.6-13.4c8.7-12.8,3.2-30-10-32.6c-9.7-1.9-18.7,1.7-22.8,9c-3.7,6.7-2.2,15.5,4.8,22.7
	C425.3,879.1,430.7,883.2,436.9,888.5z M332.2,705.6c14-0.9,25.7-6.2,34.6-16.9c7.9-9.4,13.8-19.9,17.1-32.9
	c-2.4,1.1-4.1,1.8-5.6,2.6c-25.2,12.9-47.5-0.2-48.4-28.5c-0.3-11.7,3.3-22.2,11.1-31.2c14.4-16.7,37-16,50.8,1.2
	c12.1,15.1,14.4,32.7,10,50.8c-7,28.6-24.4,48.3-53.3,56.5c-4.1,1.2-8.7,1-13.1,1.1C333.9,708.3,332.5,707.2,332.2,705.6
	L332.2,705.6z M387.2,631.8c0-10-1.9-20-7.2-29.1c-3.8-6.5-9.3-10.9-17.3-9.9c-7.8,1-13,6-15.1,13.1c-4.2,13.8-3.3,27.5,4,40.2
	c4.8,8.5,12,11.2,21.2,8.8c11.4-3,13.2-5.2,14.1-17C387,636,387,634.1,387.2,631.8z M898.7,1089.8c-28,4.5-41.7,23.5-49.6,49.6
	c5.7-2.2,10.3-4.6,15.3-5.9c16.7-4.4,31.3,3.7,36.8,20.1c7.4,22.1-5.7,48.2-26.7,53.3c-11.9,2.9-22.4,0.2-30.9-9
	c-14.8-16.2-17.4-35.4-11.8-55.6c7.6-27.6,24.7-46.8,53.2-54.1c4.9-1.3,10.3-0.9,15.4-1.2c0,0,0,0,0,0
	C900.9,1088.2,900.1,1089.6,898.7,1089.8z M852.2,1191.1c0.4,1.1,3,8.3,10.1,10.9c3.8,1.4,7.3,0.9,8.4,0.7
	c8.9-1.5,13.6-7.7,15.7-15.8c3.2-12.6,1.6-25-4.5-36.5c-4.6-8.6-12.1-12.2-20.6-10.3c-5.5,1.2-9,2.8-11.4,5.5
	c-2.8,3.2-3.2,7.2-3.9,12.1c-0.3,2.3-0.3,4.3-0.3,5.7C845.7,1173.1,847.6,1182,852.2,1191.1z M1323.1,956.7c-5.3,0-9.4,0-14.3,0
	c0-5.3,0-10.3,0-15.4c0-4.8,0-9.7,0-15.1c-16.7,0-32.6,0-48.8,0c-1.2-6.6-0.5-11.8,3.4-17.2c15.6-21.6,30.9-43.4,45.9-65.4
	c3.3-4.9,6.8-7.3,13.4-5c0,24.7,0,49.7,0,75.3c5.7,0,10.5,0,15.7,0c0,4.2,0,7.7,0,11.9c-4.9,0-9.7,0-15.4,0
	C1323.1,936.4,1323.1,946.3,1323.1,956.7z M1308.5,856.9c-14,19.8-27,38-40.4,56.8c14.3,0,27.2,0,40.4,0
	C1308.5,895.1,1308.5,877,1308.5,856.9z M1268.9,366.8c6.2-12,18.7-17.9,30.3-14.1c11.5,3.7,17.8,15.1,16,28.7
	c-1.5,11.6-6.7,21.8-14.2,30.3c-11.8,13.5-24.5,26.1-36.7,39.2c-1.1,1.2-2,2.5-3,3.9c-0.6,0.9-0.4,2.2,0.6,2.8
	c0.1,0.1,0.2,0.1,0.3,0.1c21.3,0.1,42.7,0.1,64,0.1c1,0,2.6-0.2,2.9-0.8c2.8-7,5.5-14.1,8.6-22.4c-6.2,3.8-10.5,8.5-15.1,8.8
	c-13.9,1-27.9,0.4-42.6,0.4c9-9.7,18.1-18.3,25.8-28.1c8-10.1,15.6-20.9,21.4-32.3c5.6-11,4.6-22.9-3.9-33
	c-8.9-10.5-20.5-13.5-33.5-11.2c-14.6,2.5-26,17.4-23.6,32.3C1267.2,369.9,1268.1,368.4,1268.9,366.8z M867.1,120.6
	c1.1,0.7,2.6,0.3,3.3-0.8c0.5-0.8,1-1.6,1.4-2.4c6.5-12.6,18.8-18.4,30.7-14.4c11.6,3.9,18,16.3,15.5,30.2
	c-2,11.7-7.6,21.9-15.3,30.5c-11.3,12.8-23.5,24.8-35.2,37.1c-1.6,1.7-2.9,3.8-5.4,7c0,0,0,0,0,0c23.7,0,45.2,0,66.8-0.1
	c1.1,0,3-0.5,3.3-1.2c2.8-6.6,5.3-13.3,7.8-20c0.2-0.4,0.1-0.9-0.3-1.3l0,0c-0.5-0.6-1.5-0.5-2,0.2c-7.1,10.3-17.8,9.4-28.1,9.4
	c-8.8,0.1-17.6,0-27.5,0c0,0,0,0,0,0c2.3-2.6,3.8-4.1,5.2-5.6c9.8-10.7,20.3-20.9,29-32.4c6.5-8.7,12-18.7,15.5-29
	c4.2-12.3,0.1-23.7-10.5-31.9c-11.2-8.6-23.7-9.7-36.2-3.8C873.4,97.7,868.7,108.4,867.1,120.6C867.1,120.6,867.1,120.6,867.1,120.6
	L867.1,120.6z M1102.1,1068.3c16.5,3.6,29.1,12.2,34,29.2c3.2,11.3-1,22.2-10.2,28.8c-8.9,6.4-17.8,6.1-28.5-0.7
	c-2-1.2-4.2-2.9-6.2-2.9c-2.7,0-6.4,0.9-7.7,2.7c-1.2,1.8-0.8,6.5,0.8,7.8c3.2,2.8,7.4,5.3,11.5,6c21.3,3.7,44.3-10.6,50.7-31.2
	c6.3-20.1-3.3-40.3-24.6-50.3c-6.5-3-13.6-4.8-20.7-7.3c1.4-2.8,3.2-5.7,4.3-8.9c1.6-4.9,4.7-6.3,9.7-6c7.9,0.4,15.8,0.2,23.7,0
	c1.9-0.1,4.6-0.7,5.4-2c2.2-3.7,3.7-7.9,5.7-12.6c-7.2,0-13.4-0.1-19.5,0c-7.2,0.1-15.9-2.1-21.2,1.2c-5.3,3.3-7.3,12-10.5,18.5
	c-4.2,8.3-8.2,16.7-12.5,25.3C1092.1,1066.9,1097.2,1067.2,1102.1,1068.3z M1387.6,596.4c-8.3-9.9-25.9-12.3-37.5-5
	c-8.4,5.3-15.4,16.5-13.6,20.6c3.1-2.8,6.2-6,9.7-8.7c7.5-5.6,17.6-5.9,24.6-1.1c6.9,4.8,9.7,13.6,7.3,22.9
	c-2.6,10.2-9.9,15.5-19.2,18.9c-2.1,0.8-4.2,1.5-6.3,2.2c2.8,1.8,5.6,2.2,8.4,2.8c15.5,3,25.6,14.7,25.3,29.3
	c-0.4,16.9-16.8,27.2-32.3,20.1c-3.1-1.4-6.1-3.2-9.2-4.4c-5.6-2.2-11.1-0.7-11.8,3.6c-1,5.7,3,8.6,7.6,9.2c6.9,1,14.1,1.6,21,0.9
	c23-2.2,39.1-20.9,37.5-42.4c-1.1-13.8-8.8-22.6-21.1-28.1C1394.9,618.1,1397.2,607.9,1387.6,596.4z M616.8,1132.9
	c11.3-34.7,23.3-69.1,35-103.6c0.9-2.5,1.3-5.2,2-8.5c-17.5,0-34.1,0-50.8,0c-12.4,0-12.4,0-17,11.6c-2.1,5.3-4.2,10.7-6.2,16.1
	c0.6,0.3,1.2,0.7,1.8,1c1.2-1.6,2.4-3.2,3.6-4.7c4.1-5.3,9.2-9.2,16.1-9.4c12.5-0.3,25.1-0.1,38.4-0.1
	c-11.6,34.9-23.1,69.4-34.6,104.1C611.9,1141.1,614.8,1139.1,616.8,1132.9z M837.5,205.5c-0.6-0.4-0.9-0.7-1.3-0.8
	c-12.6-2.9-12.6-2.9-12.6-15.7c0-31.2,0-62.3,0-93.5c0-1.8,0-3.6,0-7c0-0.7-0.7-1.1-1.3-0.8c-10.6,5.2-19.9,9.8-29.3,14.3
	c-0.4,0.2-0.6,0.7-0.5,1.1c0.1,0.1,0.1,0.3,0.2,0.4c0.1,0.3,0.4,0.6,0.8,0.6c0.7,0,1.5,0.1,2.2,0c10.7-2.7,12.9-1.3,13,9.5
	c0.2,26.7,0.2,53.4,0.1,80c0,8.1-1.7,9.6-10.2,10.8c-1.2,0.2-2.4,0.5-3.6,0.8c-0.4,0.1-0.7,0.5-0.7,1l0,0c0.1,0.4,0.4,0.8,0.9,0.8
	h41.6C837.8,207.1,838.2,206,837.5,205.5z M1139.2,272.3c-0.6-0.4-0.9-0.7-1.3-0.8c-12.6-2.9-12.6-2.9-12.6-15.7
	c0-31.2,0-62.3,0-93.5c0-1.8,0-3.6,0-7c0-0.7-0.7-1.1-1.3-0.8c-10.6,5.2-19.9,9.8-29.3,14.3c-0.4,0.2-0.6,0.7-0.5,1.1
	c0.1,0.1,0.1,0.3,0.2,0.4c0.1,0.3,0.4,0.6,0.8,0.6c0.7,0,1.5,0.1,2.2,0c10.7-2.7,12.9-1.3,13,9.5c0.2,26.7,0.2,53.4,0.1,80
	c0,8.1-1.7,9.6-10.2,10.8c-1.2,0.2-2.4,0.5-3.6,0.8c-0.4,0.1-0.7,0.5-0.7,1l0,0c0.1,0.4,0.4,0.8,0.9,0.8h41.6
	C1139.5,273.9,1139.9,272.8,1139.2,272.3z M417.9,461.6c-0.6-0.4-0.9-0.7-1.3-0.8c-12.6-2.9-12.6-2.9-12.6-15.7
	c0-31.2,0-62.3,0-93.5c0-1.8,0-3.6,0-7c0-0.7-0.7-1.1-1.3-0.8c-10.6,5.2-19.9,9.8-29.3,14.3c-0.4,0.2-0.6,0.7-0.5,1.1
	c0.1,0.1,0.1,0.3,0.2,0.4c0.1,0.3,0.4,0.6,0.8,0.6c0.7,0,1.5,0.1,2.2,0c10.7-2.7,12.9-1.3,13,9.5c0.2,26.7,0.2,53.4,0.1,80
	c0,8.1-1.7,9.6-10.2,10.8c-1.2,0.2-2.4,0.5-3.6,0.8c-0.4,0.1-0.7,0.5-0.7,1l0,0c0.1,0.4,0.4,0.8,0.9,0.8h41.6
	C418.2,463.2,418.5,462.1,417.9,461.6z M602,279.9c-0.6-0.4-0.9-0.7-1.3-0.8c-12.6-2.9-12.6-2.9-12.6-15.7c0-31.2,0-62.3,0-93.5
	c0-1.8,0-3.6,0-7c0-0.7-0.7-1.1-1.3-0.8c-10.6,5.2-19.9,9.8-29.3,14.3c-0.4,0.2-0.6,0.7-0.5,1.1c0.1,0.1,0.1,0.3,0.2,0.4
	c0.1,0.3,0.4,0.6,0.8,0.6c0.7,0,1.5,0.1,2.2,0c10.7-2.7,12.9-1.3,13,9.5c0.2,26.7,0.2,53.4,0.1,80c0,8.1-1.7,9.6-10.2,10.8
	c-1.2,0.2-2.4,0.5-3.6,0.8c-0.4,0.1-0.7,0.5-0.7,1l0,0c0.1,0.4,0.4,0.8,0.9,0.8h41.6C602.3,281.6,602.7,280.5,602,279.9z
	 M683.6,279.9c-0.6-0.4-0.9-0.7-1.3-0.8c-12.6-2.9-12.6-2.9-12.6-15.7c0-31.2,0-62.3,0-93.5c0-1.8,0-3.6,0-7c0-0.7-0.7-1.1-1.3-0.8
	c-10.6,5.2-19.9,9.8-29.3,14.3c-0.4,0.2-0.6,0.7-0.5,1.1c0.1,0.1,0.1,0.3,0.2,0.4c0.1,0.3,0.4,0.6,0.8,0.6c0.7,0,1.5,0.1,2.2,0
	c10.7-2.7,12.9-1.3,13,9.5c0.2,26.7,0.2,53.4,0.1,80c0,8.1-1.7,9.6-10.2,10.8c-1.2,0.2-2.4,0.5-3.6,0.8c-0.4,0.1-0.7,0.5-0.7,1l0,0
	c0.1,0.4,0.4,0.8,0.9,0.8H683C683.9,281.6,684.3,280.5,683.6,279.9z"/>
</svg>
